<?xml version="1.0" encoding="UTF-8"?>
<svg version="1.1" xmlns="http://www.w3.org/2000/svg" width="180" height="180">
<path d="M0 0 C59.4 0 118.8 0 180 0 C180 59.4 180 118.8 180 180 C120.6 180 61.2 180 0 180 C0 120.6 0 61.2 0 0 Z " fill="#F9F9F6" transform="translate(0,0)"/>
<path d="M0 0 C6.6 0 13.2 0 20 0 C20.61407715 1.56548584 21.2281543 3.13097168 21.86083984 4.74389648 C23.93561183 10.03259169 26.01116858 15.32097857 28.0872097 20.60917568 C29.34062924 23.8020278 30.59377429 26.99498695 31.84619141 30.18823242 C33.30032694 33.89532618 34.75540665 37.60204763 36.2109375 41.30859375 C36.69012634 42.52952728 37.16931519 43.75046082 37.6630249 45.00839233 C40.07119495 51.13388649 42.49723663 57.25138694 44.95800781 63.35595703 C45.42437653 64.51378189 45.89074524 65.67160675 46.37124634 66.86451721 C47.25624142 69.05731667 48.14427101 71.24889455 49.03573608 73.43907166 C49.42693634 74.40800858 49.8181366 75.3769455 50.22119141 76.37524414 C50.56614655 77.22397598 50.91110168 78.07270782 51.26651001 78.94715881 C52 81 52 81 52 83 C46.06 83 40.12 83 34 83 C29.25 71.625 29.25 71.625 27 66 C15.78 66 4.56 66 -7 66 C-8.93257638 71.21946973 -8.93257638 71.21946973 -10.85913086 76.44116211 C-12.88888889 81.88888889 -12.88888889 81.88888889 -14 83 C-15.34267413 83.08631874 -16.68974322 83.10706473 -18.03515625 83.09765625 C-18.84404297 83.09443359 -19.65292969 83.09121094 -20.48632812 83.08789062 C-21.33646484 83.07951172 -22.18660156 83.07113281 -23.0625 83.0625 C-23.91650391 83.05798828 -24.77050781 83.05347656 -25.65039062 83.04882812 C-27.76695663 83.03700373 -29.88348685 83.01906769 -32 83 C-29.33831089 73.1637579 -25.44693263 63.86493383 -21.625 54.4375 C-20.1882195 50.87445614 -18.75445177 47.31020138 -17.3203125 43.74609375 C-16.95951599 42.85070892 -16.59871948 41.9553241 -16.22698975 41.0328064 C-12.60575121 32.03976982 -9.04572088 23.02302816 -5.5 14 C-4.93701286 12.56827755 -4.37402461 11.13655553 -3.81103516 9.70483398 C-2.53937812 6.47040196 -1.2697262 3.23519279 0 0 Z " fill="#1D1D1D" transform="translate(64,49)"/>
<path d="M0 0 C5.94 0 11.88 0 18 0 C18.61407715 1.56548584 19.2281543 3.13097168 19.86083984 4.74389648 C21.93561183 10.03259169 24.01116858 15.32097857 26.0872097 20.60917568 C27.34062924 23.8020278 28.59377429 26.99498695 29.84619141 30.18823242 C31.30032694 33.89532618 32.75540665 37.60204763 34.2109375 41.30859375 C34.69012634 42.52952728 35.16931519 43.75046082 35.6630249 45.00839233 C38.07119495 51.13388649 40.49723663 57.25138694 42.95800781 63.35595703 C43.65756088 65.09269432 43.65756088 65.09269432 44.37124634 66.86451721 C45.25624142 69.05731667 46.14427101 71.24889455 47.03573608 73.43907166 C47.42693634 74.40800858 47.8181366 75.3769455 48.22119141 76.37524414 C48.73862411 77.6483419 48.73862411 77.6483419 49.26651001 78.94715881 C50 81 50 81 50 83 C44.06 83 38.12 83 32 83 C28.32569993 73.84610792 24.66277165 64.68773986 21.00793457 55.52606201 C20.31411392 53.78722495 19.62000554 52.04850269 18.92565918 50.30987549 C16.63726092 44.57960289 14.3537626 38.8474136 12.07589722 33.11294556 C11.32161798 31.21601507 10.56587821 29.31966463 9.80862427 27.42391968 C8.73167519 24.7269015 7.66018284 22.02777208 6.58984375 19.328125 C6.27151581 18.53426895 5.95318787 17.7404129 5.62521362 16.92250061 C3.42855733 11.35938993 1.65967476 5.74676283 0 0 Z " fill="#1E1E1E" transform="translate(99,49)"/>
<path d="M0 0 C0.66 0 1.32 0 2 0 C3.42842911 3.66452852 4.85247676 7.33072569 6.27246094 10.99853516 C6.99441847 12.86060415 7.71985238 14.72132407 8.4453125 16.58203125 C8.89648438 17.74863281 9.34765625 18.91523437 9.8125 20.1171875 C10.23144531 21.19597168 10.65039062 22.27475586 11.08203125 23.38623047 C12 26 12 26 12 28 C4.74 28 -2.52 28 -10 28 C-6.625 16.75 -6.625 16.75 -5.17578125 13.0859375 C-4.86962891 12.30605469 -4.56347656 11.52617188 -4.24804688 10.72265625 C-3.93931641 9.94792969 -3.63058594 9.17320313 -3.3125 8.375 C-2.99216797 7.56160156 -2.67183594 6.74820313 -2.34179688 5.91015625 C-1.56480309 3.93867949 -0.78293147 1.96912627 0 0 Z " fill="#EFEFEC" transform="translate(73,71)"/>
</svg>
