<?xml version="1.0" encoding="UTF-8"?>
<svg version="1.1" xmlns="http://www.w3.org/2000/svg" width="866" height="650">
<path d="M0 0 C285.78 0 571.56 0 866 0 C866 214.5 866 429 866 650 C580.22 650 294.44 650 0 650 C0 435.5 0 221 0 0 Z " fill="#FEFEFE" transform="translate(0,0)"/>
<path d="M0 0 C6.30791028 -0.34186227 11.49659507 1.21410377 17.046875 4.19140625 C18.1915625 5.22201172 18.1915625 5.22201172 19.359375 6.2734375 C22.76311383 8.70255925 25.75752078 8.87546774 29.796875 9.12890625 C38.71802598 9.99240653 44.60694076 12.37805845 50.921875 18.94140625 C56.27906628 25.64100277 57.18308997 31.26020645 56.921875 39.75390625 C56.77605536 45.57502611 57.18030276 49.0234321 60.85546875 53.578125 C64.06848181 57.92886071 63.55079223 64.05864928 63.046875 69.19140625 C61.31116532 76.73024165 58.18879569 83.31399864 52.046875 88.19140625 C50.21883211 89.04165876 48.36185609 89.83173974 46.484375 90.56640625 C40.89067564 92.81455518 39.20914727 95.52244946 36.5 100.75390625 C33.02955965 106.57529006 26.40149268 110.31627316 20.046875 112.19140625 C11.15555931 113.24156165 4.55221069 112.09820951 -2.953125 107.19140625 C-3.54222656 106.66160156 -4.13132813 106.13179688 -4.73828125 105.5859375 C-7.91266009 103.58725452 -11.17468493 103.48636288 -14.828125 103.19140625 C-22.82009928 102.53900019 -29.42324982 100.2712959 -34.953125 94.19140625 C-36.82568849 91.28691934 -38.42558142 88.28909422 -39.953125 85.19140625 C-40.283125 84.53140625 -40.613125 83.87140625 -40.953125 83.19140625 C-40.91234721 79.67710245 -40.82799426 76.17399206 -40.65039062 72.6640625 C-40.52213105 67.2201559 -41.61858148 64.65390072 -44.953125 60.19140625 C-48.14006874 52.43718646 -48.20507023 43.71617955 -45.390625 35.81640625 C-42.04004226 28.57444497 -36.8541925 24.21611652 -29.75 20.8203125 C-27.953125 20.19140625 -27.953125 20.19140625 -24.953125 20.19140625 C-24.788125 19.38703125 -24.623125 18.58265625 -24.453125 17.75390625 C-21.41228635 10.53191446 -15.97393577 4.91200387 -8.75 1.83203125 C-5.7878319 0.77595393 -3.120158 0.30577548 0 0 Z " fill="#0E0E0E" transform="translate(182.953125,268.80859375)"/>
<path d="M0 0 C8.86096141 6.25973221 14.1527325 14.04449083 16.20605469 24.67749023 C16.98511606 30.19493364 16.91183533 35.70739674 16.875 41.26953125 C16.88660156 43.03296875 16.88660156 43.03296875 16.8984375 44.83203125 C16.8718022 56.68473758 14.70944327 67.64186831 6.25 76.51953125 C-4.30802856 86.21102614 -16.53084783 86.3167864 -30.10693359 85.78808594 C-40.46866774 85.13225174 -46.97356185 79.94815967 -54.1875 72.89453125 C-60.91132974 62.90484134 -61.57470396 52.18821205 -61.625 40.51953125 C-61.6559375 38.75996094 -61.6559375 38.75996094 -61.6875 36.96484375 C-61.74404505 24.2422079 -59.29737747 14.16238205 -50.55859375 4.671875 C-37.29140805 -7.95205321 -15.59292892 -8.89925384 0 0 Z " fill="#050505" transform="translate(340.375,274.35546875)"/>
<path d="M0 0 C6.30791028 -0.34186227 11.49659507 1.21410377 17.046875 4.19140625 C18.1915625 5.22201172 18.1915625 5.22201172 19.359375 6.2734375 C22.76311383 8.70255925 25.75752078 8.87546774 29.796875 9.12890625 C38.71802598 9.99240653 44.60694076 12.37805845 50.921875 18.94140625 C56.27906628 25.64100277 57.18308997 31.26020645 56.921875 39.75390625 C56.77605536 45.57502611 57.18030276 49.0234321 60.85546875 53.578125 C64.06848181 57.92886071 63.55079223 64.05864928 63.046875 69.19140625 C61.31116532 76.73024165 58.18879569 83.31399864 52.046875 88.19140625 C50.21883211 89.04165876 48.36185609 89.83173974 46.484375 90.56640625 C40.89067564 92.81455518 39.20914727 95.52244946 36.5 100.75390625 C33.02955965 106.57529006 26.40149268 110.31627316 20.046875 112.19140625 C11.15555931 113.24156165 4.55221069 112.09820951 -2.953125 107.19140625 C-3.54222656 106.66160156 -4.13132813 106.13179688 -4.73828125 105.5859375 C-7.91266009 103.58725452 -11.17468493 103.48636288 -14.828125 103.19140625 C-22.82009928 102.53900019 -29.42324982 100.2712959 -34.953125 94.19140625 C-36.82568849 91.28691934 -38.42558142 88.28909422 -39.953125 85.19140625 C-40.283125 84.53140625 -40.613125 83.87140625 -40.953125 83.19140625 C-40.91234721 79.67710245 -40.82799426 76.17399206 -40.65039062 72.6640625 C-40.52213105 67.2201559 -41.61858148 64.65390072 -44.953125 60.19140625 C-48.14006874 52.43718646 -48.20507023 43.71617955 -45.390625 35.81640625 C-42.04004226 28.57444497 -36.8541925 24.21611652 -29.75 20.8203125 C-27.953125 20.19140625 -27.953125 20.19140625 -24.953125 20.19140625 C-24.788125 19.38703125 -24.623125 18.58265625 -24.453125 17.75390625 C-21.41228635 10.53191446 -15.97393577 4.91200387 -8.75 1.83203125 C-5.7878319 0.77595393 -3.120158 0.30577548 0 0 Z M-14.65478516 15.10620117 C-19.52698606 22.30529534 -19.79012385 29.0665542 -19.57055664 37.45288086 C-19.51509332 39.64996782 -19.50903346 41.84329511 -19.50976562 44.04101562 C-19.93074499 50.97232676 -19.93074499 50.97232676 -17.42163086 57.00024414 C-16.69472046 57.58986938 -16.69472046 57.58986938 -15.953125 58.19140625 C-15.953125 58.85140625 -15.953125 59.51140625 -15.953125 60.19140625 C-19.47382485 59.60462294 -21.66612343 58.83490704 -24.953125 57.19140625 C-25.283125 47.62140625 -25.613125 38.05140625 -25.953125 28.19140625 C-32.24976611 30.71006269 -36.01582994 34.11904839 -39.21875 40.18359375 C-41.05118808 45.19355744 -40.74784882 49.97371843 -38.96484375 54.94921875 C-36.66798423 59.94637057 -36.66798423 59.94637057 -32.828125 63.74609375 C-30.953125 65.19140625 -30.953125 65.19140625 -30.203125 68.87890625 C-30.079375 70.51859375 -30.079375 70.51859375 -29.953125 72.19140625 C-31.273125 72.19140625 -32.593125 72.19140625 -33.953125 72.19140625 C-34.40718127 78.54819402 -33.67495066 82.92426117 -29.953125 88.19140625 C-25.18387347 93.2997041 -20.60446782 96.1789854 -13.55859375 96.625 C-6.60429374 96.57715653 -1.45604632 93.29740066 4.421875 89.87890625 C5.48792969 89.28400391 6.55398437 88.68910156 7.65234375 88.07617188 C14.13822909 84.55810249 14.13822909 84.55810249 20.046875 80.19140625 C20.53208417 77.09526942 20.53208417 77.09526942 20.296875 73.69140625 C20.24273437 71.974375 20.24273437 71.974375 20.1875 70.22265625 C20.14109375 69.22234375 20.0946875 68.22203125 20.046875 67.19140625 C20.046875 61.19140625 20.046875 55.19140625 20.046875 49.19140625 C24.11610103 48.18102019 26.26359762 48.29184787 30.08325195 50.21655273 C32.06251333 51.25447843 32.06251333 51.25447843 34.34448242 51.96508789 C37.12189997 53.07702754 38.92211786 54.06504713 41.046875 56.19140625 C42.33902679 60.95616798 42.21458247 65.59340883 42.109375 70.50390625 C42.11646484 71.81681641 42.12355469 73.12972656 42.13085938 74.48242188 C42.14263578 77.72093456 42.11319663 80.95370494 42.046875 84.19140625 C47.50731711 82.18254795 50.44309833 79.40351201 53.859375 74.69140625 C55.92154858 68.61342097 56.3016279 61.93141853 54.23828125 55.78125 C51.12894278 50.1973515 46.43451783 47.35091488 41.046875 44.19140625 C39.64974513 43.31717278 38.2540312 42.44067431 36.859375 41.5625 C35.33949714 40.6247517 33.81865447 39.68856544 32.296875 38.75390625 C31.5637207 38.29193848 30.83056641 37.8299707 30.07519531 37.35400391 C25.94607769 34.81345362 25.94607769 34.81345362 21.23828125 34.28515625 C18.18092511 35.54951743 15.66681925 37.18075136 13.046875 39.19140625 C13.046875 39.85140625 13.046875 40.51140625 13.046875 41.19140625 C12.056875 40.20140625 11.066875 39.21140625 10.046875 38.19140625 C13.24506039 33.3246024 17.57351695 30.12969493 23.046875 28.19140625 C26.75876752 28.65083499 29.4060653 29.76548021 32.5859375 31.6953125 C33.82730469 32.43491211 33.82730469 32.43491211 35.09375 33.18945312 C36.36992187 33.96385742 36.36992187 33.96385742 37.671875 34.75390625 C39.36880095 35.78199877 41.06918193 36.80441641 42.7734375 37.8203125 C43.52189941 38.2747876 44.27036133 38.7292627 45.04150391 39.19750977 C47.12184518 40.4134409 47.12184518 40.4134409 50.046875 40.19140625 C50.76701404 33.56612711 48.7695181 28.67789521 45.046875 23.19140625 C39.07646114 17.45615093 33.29257068 16.86904375 25.34765625 16.88671875 C21.44586832 17.24688379 19.00558959 18.3731146 15.703125 20.3671875 C14.046875 21.19140625 14.046875 21.19140625 11.046875 20.94140625 C10.386875 20.69390625 9.726875 20.44640625 9.046875 20.19140625 C8.551875 18.21140625 8.551875 18.21140625 8.046875 16.19140625 C8.830625 15.90265625 9.614375 15.61390625 10.421875 15.31640625 C13.14359132 14.34228371 13.14359132 14.34228371 15.046875 12.19140625 C4.95889232 6.10054878 -6.3640962 5.77709451 -14.65478516 15.10620117 Z " fill="#0B0B0B" transform="translate(182.953125,268.80859375)"/>
<path d="M0 0 C6.42641415 4.15209335 10.32647231 9.97702886 12.15234375 17.390625 C12.59147569 21.50324386 12.61708341 25.57012587 12.58984375 29.703125 C12.61981445 31.29930664 12.61981445 31.29930664 12.65039062 32.92773438 C12.64497137 41.80989173 10.73380398 49.16641736 6.08984375 56.765625 C-0.99204958 63.09412542 -8.42342426 65.16612419 -17.828125 64.7421875 C-25.72553511 63.82269603 -28.4793589 61.83258182 -33.84765625 55.390625 C-34.17765625 65.290625 -34.50765625 75.190625 -34.84765625 85.390625 C-39.79765625 85.390625 -44.74765625 85.390625 -49.84765625 85.390625 C-49.84765625 56.680625 -49.84765625 27.970625 -49.84765625 -1.609375 C-44.89765625 -1.609375 -39.94765625 -1.609375 -34.84765625 -1.609375 C-34.51765625 0.700625 -34.18765625 3.010625 -33.84765625 5.390625 C-32.96078125 4.441875 -32.07390625 3.493125 -31.16015625 2.515625 C-23.70601978 -5.45856751 -9.22897854 -4.36111465 0 0 Z " fill="#040404" transform="translate(420.84765625,295.609375)"/>
<path d="M0 0 C5.94 0 11.88 0 18 0 C24.01132757 15.90259512 29.89129855 31.84796888 35.63183594 47.8503418 C36.89092602 51.35685327 38.1563682 54.86103437 39.421875 58.36523438 C40.23736617 60.63527768 41.05248432 62.90545503 41.8671875 65.17578125 C42.23907196 66.20302811 42.61095642 67.23027496 42.99411011 68.28865051 C45.31815356 74.7938058 47.25652348 81.31507359 49 88 C43.72 88 38.44 88 33 88 C32.175 85.6075 31.35 83.215 30.5 80.75 C30.23896484 80.00331055 29.97792969 79.25662109 29.70898438 78.48730469 C28.56093471 75.09964702 28 72.61680617 28 69 C15.79 69 3.58 69 -9 69 C-9.99 72.96 -10.98 76.92 -12 81 C-12.66 83.31 -13.32 85.62 -14 88 C-19.28 88 -24.56 88 -30 88 C-29.32459051 83.27213356 -28.81832045 79.96754029 -27.26928711 75.67333984 C-26.91478989 74.68055023 -26.56029266 73.68776062 -26.1950531 72.66488647 C-25.80970901 71.60758331 -25.42436493 70.55028015 -25.02734375 69.4609375 C-24.62600723 68.3442569 -24.22467072 67.22757629 -23.81117249 66.07705688 C-22.95935004 63.7107267 -22.10432942 61.34554568 -21.24633789 58.98144531 C-19.96032784 55.43790111 -18.68332442 51.89122504 -17.40820312 48.34375 C-13.22905844 36.74590492 -8.99231071 25.17525375 -4.51463318 13.68881226 C-4.21146683 12.90543488 -3.90830048 12.1220575 -3.59594727 11.31494141 C-3.33451431 10.64604889 -3.07308136 9.97715637 -2.8037262 9.28799438 C-1.73190101 6.23679358 -0.88844301 3.10955055 0 0 Z " fill="#060606" transform="translate(614,271)"/>
<path d="M0 0 C1.03125 0.53625 2.0625 1.0725 3.125 1.625 C9.33005188 6.75091242 11.803378 12.31182301 14 20 C14 25.28 14 30.56 14 36 C-0.52 36 -15.04 36 -30 36 C-28.7358953 44.94978354 -28.7358953 44.94978354 -24 51 C-18.52682737 52.82439088 -11.94657885 53.27163145 -6.57421875 50.953125 C-4.51587923 49.67119233 -4.51587923 49.67119233 -2.71875 48.2890625 C-0.81190858 46.85893144 0.73002023 45.76243595 3 45 C5.140625 45.8984375 5.140625 45.8984375 7.25 47.375 C8.30960937 48.09816406 8.30960937 48.09816406 9.390625 48.8359375 C9.92171875 49.22007812 10.4528125 49.60421875 11 50 C9.67938658 54.05966348 8.19293829 56.09835191 4.8125 58.6875 C3.70841797 59.55955078 3.70841797 59.55955078 2.58203125 60.44921875 C-5.8447369 65.51037905 -16.7690706 65.13220546 -26.203125 63.41796875 C-33.23454637 61.26729657 -38.15875091 57.27826797 -42 51 C-45.08660028 44.24622049 -45.46181883 37.84101436 -45.375 30.5 C-45.38660156 29.51902344 -45.39820313 28.53804688 -45.41015625 27.52734375 C-45.37004209 17.48543219 -43.28030956 10.24306229 -36.20703125 2.953125 C-26.86577685 -5.31347182 -10.85721683 -5.73588813 0 0 Z " fill="#080808" transform="translate(489,296)"/>
<path d="M0 0 C7.74393378 7.74393378 7.48969776 17.08306673 7.5 27.375 C7.52449219 28.64730469 7.54898438 29.91960937 7.57421875 31.23046875 C7.59987484 39.51738619 7.18863072 47.63403629 1.37451172 54.05957031 C-5.12530554 60.09094922 -11.62612505 60.66825361 -20.265625 60.4375 C-26.49338282 59.89830019 -29.15920768 57.80179704 -33.625 53.4375 C-39.30357565 45.93060386 -39.3434158 37.17595268 -39.25 28.125 C-39.26160156 27.0009375 -39.27320313 25.876875 -39.28515625 24.71875 C-39.25059249 14.85655734 -37.81255474 7.10032101 -30.89453125 -0.2109375 C-21.897208 -7.62459264 -9.23244751 -6.02116142 0 0 Z " fill="#FBFBFB" transform="translate(333.875,286.875)"/>
<path d="M0 0 C17.82 0 35.64 0 54 0 C54 4.29 54 8.58 54 13 C48.06 13 42.12 13 36 13 C36 33.46 36 53.92 36 75 C42.27 75 48.54 75 55 75 C55 79.29 55 83.58 55 88 C36.85 88 18.7 88 0 88 C0 83.71 0 79.42 0 75 C6.27 75 12.54 75 19 75 C19 54.54 19 34.08 19 13 C12.73 13 6.46 13 0 13 C0 8.71 0 4.42 0 0 Z " fill="#0D0D0D" transform="translate(672,271)"/>
<path d="M0 0 C5.38220535 4.25569725 8.38061089 8.52197701 9.6796875 15.328125 C9.94131108 19.05875062 9.91306234 22.77349599 9.875 26.51171875 C9.8721701 27.56722427 9.86934021 28.6227298 9.86642456 29.71022034 C9.85528165 33.06214004 9.83018774 36.41378684 9.8046875 39.765625 C9.7946501 42.04622008 9.78552558 44.32681938 9.77734375 46.60742188 C9.75536157 52.18109381 9.72087223 57.75456322 9.6796875 63.328125 C4.3996875 63.328125 -0.8803125 63.328125 -6.3203125 63.328125 C-6.33489502 61.99112549 -6.34947754 60.65412598 -6.36450195 59.27661133 C-6.42253374 54.30970701 -6.49976685 49.34325371 -6.58276367 44.37670898 C-6.61598996 42.22834602 -6.64402903 40.07989625 -6.66674805 37.93139648 C-6.70033581 34.84060724 -6.75265471 31.75061188 -6.80859375 28.66015625 C-6.81498367 27.70164261 -6.8213736 26.74312897 -6.82795715 25.75556946 C-6.93600969 20.83960511 -7.05266671 17.28049632 -10.3203125 13.328125 C-14.57962497 10.69737318 -19.46360885 10.77181167 -24.3203125 11.328125 C-27.72786516 12.66151517 -28.95075521 13.75268197 -30.92114258 16.82080078 C-32.75353519 21.41409205 -32.79760033 25.41907557 -32.83203125 30.3203125 C-32.84998245 31.26625275 -32.86793365 32.21219299 -32.88642883 33.1867981 C-32.94037887 36.19219579 -32.97437854 39.19743604 -33.0078125 42.203125 C-33.04099907 44.24741767 -33.07548997 46.2916896 -33.11132812 48.3359375 C-33.19609665 53.33321948 -33.26298089 58.33045599 -33.3203125 63.328125 C-38.2703125 63.328125 -43.2203125 63.328125 -48.3203125 63.328125 C-48.3203125 41.878125 -48.3203125 20.428125 -48.3203125 -1.671875 C-43.3703125 -1.671875 -38.4203125 -1.671875 -33.3203125 -1.671875 C-32.9903125 0.638125 -32.6603125 2.948125 -32.3203125 5.328125 C-31.6396875 4.565 -30.9590625 3.801875 -30.2578125 3.015625 C-22.35409852 -4.21543248 -9.36757267 -5.70899278 0 0 Z " fill="#050505" transform="translate(562.3203125,295.671875)"/>
<path d="M0 0 C1.36946777 0.58225342 1.36946777 0.58225342 2.76660156 1.17626953 C6.00975193 2.85392846 8.438325 4.38371411 11 7 C12.35978971 11.87106066 12.04911312 16.42802032 11.6875 21.4375 C11.63787109 22.74138672 11.58824219 24.04527344 11.53710938 25.38867188 C11.40778868 28.59817632 11.22741163 31.79619957 11 35 C12.485 35.495 12.485 35.495 14 36 C13.01 36.99 13.01 36.99 12 38 C11.62875 39.2375 11.62875 39.2375 11.25 40.5 C7.57571458 50.78799917 2.03416743 56.45048975 -7.1875 61.875 C-14.84447042 64.1344339 -22.31216666 64.23758925 -29.5625 60.6875 C-31.86183254 59.39630652 -33.82351943 58.15871667 -35.78515625 56.39453125 C-38.95953509 54.39584827 -42.22155993 54.29495663 -45.875 54 C-54.42575422 53.30197925 -59.67811711 50.56927778 -66 45 C-65.67 44.113125 -65.34 43.22625 -65 42.3125 C-64.08777857 39.29076653 -63.81669042 37.11626294 -64 34 C-63.2575 35.051875 -63.2575 35.051875 -62.5 36.125 C-58.33604983 40.9135427 -53.39337561 45.30884829 -46.95458984 46.32177734 C-38.88609092 46.79580789 -33.4464474 43.62174421 -26.625 39.625 C-25.55894531 39.02171875 -24.49289063 38.4184375 -23.39453125 37.796875 C-21.42358605 36.68124564 -19.45760071 35.55677102 -17.49853516 34.42041016 C-15.36066473 33.20503688 -13.21175454 32.07320877 -11 31 C-11.10828125 29.64455078 -11.10828125 29.64455078 -11.21875 28.26171875 C-11.3115625 27.08222656 -11.404375 25.90273438 -11.5 24.6875 C-11.5928125 23.51574219 -11.685625 22.34398437 -11.78125 21.13671875 C-12.10049968 16.55890639 -11.94932049 12.01753821 -11.75 7.4375 C-11.73582031 6.75236328 -11.72164062 6.06722656 -11.70703125 5.36132812 C-11.609375 3.37109375 -11.609375 3.37109375 -11 0 C-7.29098609 -2.98282803 -4.03955173 -1.74615863 0 0 Z " fill="#0C0C0C" transform="translate(214,318)"/>
<path d="M0 0 C3.81638112 2.48508538 6.2299304 4.3772912 7.6875 8.75 C7.94359828 12.34973294 7.91884254 15.95461345 7.9375 19.5625 C7.958125 20.54798828 7.97875 21.53347656 8 22.54882812 C8.02948155 28.03608201 7.85096408 32.0461318 4.6875 36.75 C-0.24054544 41.19726052 -3.26367505 42.09539026 -9.76953125 42.0390625 C-13.4338785 41.62253148 -15.54413423 40.11323907 -18.3125 37.75 C-18.89 37.275625 -19.4675 36.80125 -20.0625 36.3125 C-23.78790022 31.65574973 -23.64829895 26.55062434 -23.625 20.875 C-23.64111328 20.09769531 -23.65722656 19.32039063 -23.67382812 18.51953125 C-23.67914034 12.19799513 -22.53822061 7.40650524 -18.375 2.4375 C-12.74295954 -2.1705331 -6.72766178 -2.5387403 0 0 Z " fill="#FAFAFA" transform="translate(409.3125,306.25)"/>
<path d="M0 0 C1.093125 0.66 2.18625 1.32 3.3125 2 C-0.95398408 5.64482073 -5.54711026 8.43270726 -10.375 11.25 C-11.53225586 11.93835938 -11.53225586 11.93835938 -12.71289062 12.640625 C-13.45087891 13.07375 -14.18886719 13.506875 -14.94921875 13.953125 C-15.61912842 14.34661133 -16.28903809 14.74009766 -16.97924805 15.14550781 C-18.6875 16 -18.6875 16 -20.6875 16 C-20.6875 27.22 -20.6875 38.44 -20.6875 50 C-28.25264094 46.97394362 -28.25264094 46.97394362 -30.6875 45 C-31.3503418 41.88061523 -31.3503418 41.88061523 -31.38671875 38.05859375 C-31.39745171 37.03512596 -31.39745171 37.03512596 -31.40840149 35.99098206 C-31.4161841 34.54437567 -31.41115391 33.09765204 -31.39428711 31.65112305 C-31.37526174 29.46754029 -31.41419925 27.29051111 -31.45898438 25.10742188 C-31.51111522 16.56774102 -30.57863096 9.64616515 -24.6875 3 C-17.34762428 -2.98959197 -8.59560786 -4.23705759 0 0 Z " fill="#F2F2F2" transform="translate(194.6875,279)"/>
<path d="M0 0 C-0.06396973 0.82612793 -0.12793945 1.65225586 -0.19384766 2.50341797 C-1.70949594 17.5723227 -1.70949594 17.5723227 2.66894531 31.27441406 C6.82354211 34.6598569 11.53358383 36.46641848 16.5859375 38.1171875 C20.64186598 39.60042348 24.29598779 41.80060446 28 44 C28 44.66 28 45.32 28 46 C21.68483902 50.08628063 21.68483902 50.08628063 18.68041992 49.70776367 C13.86784125 48.43700444 9.78457488 45.72527022 5.5 43.25 C4.56285156 42.7240625 3.62570313 42.198125 2.66015625 41.65625 C-5.10289124 37.20763839 -11.10827159 32.7982375 -14 24 C-15.12866348 17.52063558 -14.02363797 12.54916233 -10.5703125 6.984375 C-7.98637166 3.71909652 -4.38856325 0 0 0 Z " fill="#F3F3F3" transform="translate(157,297)"/>
<path d="M0 0 C0.84131553 3.91175769 1.06005107 7.11486138 0 11 C-3.29510457 14.10479325 -7.03273016 16.03368033 -11.05761719 18.01318359 C-13.0433343 19.02201574 -14.94149509 20.1245568 -16.8515625 21.26953125 C-23.64666579 25.27665633 -29.8939874 28.90814102 -38 27 C-45.19837569 24.76423879 -49.73093955 20.02242535 -53.375 13.5625 C-54.25167195 9.968145 -54.12529943 6.69633309 -54 3 C-50.70398948 4.14730346 -47.78254029 5.65686499 -44.78515625 7.41796875 C-44.01623047 7.86720703 -43.24730469 8.31644531 -42.45507812 8.77929688 C-40.85777061 9.71942644 -39.2665751 10.67001723 -37.68164062 11.63085938 C-36.91142578 12.07623047 -36.14121094 12.52160156 -35.34765625 12.98046875 C-34.65679932 13.39192139 -33.96594238 13.80337402 -33.25415039 14.22729492 C-29.13360004 15.63978727 -25.93466039 14.45575533 -22.1315918 12.60131836 C-21.16390869 12.02003174 -20.19622559 11.43874512 -19.19921875 10.83984375 C-18.14025391 10.21142578 -17.08128906 9.58300781 -15.99023438 8.93554688 C-14.90033203 8.27619141 -13.81042969 7.61683594 -12.6875 6.9375 C-10.50487604 5.63249125 -8.32133417 4.32901601 -6.13671875 3.02734375 C-5.17467529 2.44718506 -4.21263184 1.86702637 -3.22143555 1.26928711 C-1 0 -1 0 0 0 Z " fill="#F5F5F5" transform="translate(203,338)"/>
<path d="M0 0 C3.89960405 1.90059265 7.65576688 4.06364121 11.4375 6.1875 C12.47455078 6.75275391 13.51160156 7.31800781 14.58007812 7.90039062 C21.28488652 11.65973406 27.31558595 15.38924368 30 23 C30.765638 29.73049222 30.86808307 36.38804584 27.34765625 42.34375 C24.93911622 45.30381079 22.28075672 47.05584787 19 49 C18.34 49 17.68 49 17 49 C17.10586426 48.23034912 17.21172852 47.46069824 17.32080078 46.66772461 C18.30609958 38.07686971 19.1437696 29.21099158 16 21 C9.74636657 14.26101705 0.98053006 10.59685471 -7.40209961 7.15966797 C-10 6 -10 6 -12 4 C-10.76055724 3.13058506 -9.50792941 2.27994543 -8.25 1.4375 C-7.55390625 0.96183594 -6.8578125 0.48617188 -6.140625 -0.00390625 C-3.46000759 -1.25127384 -2.76429995 -0.92338138 0 0 Z " fill="#F5F5F5" transform="translate(208,304)"/>
<path d="M0 0 C5.65538358 3.39798257 8.31486112 8.15684724 10.4375 14.3125 C10.625 18.25 10.625 18.25 10.4375 21.3125 C6.77612455 20.75376156 4.2930607 19.82993781 1.22265625 17.7734375 C0.45373047 17.27585937 -0.31519531 16.77828125 -1.10742188 16.265625 C-2.7033592 15.21295777 -4.29453231 14.153032 -5.88085938 13.0859375 C-6.65107422 12.5909375 -7.42128906 12.0959375 -8.21484375 11.5859375 C-8.90570068 11.12622559 -9.59655762 10.66651367 -10.30834961 10.19287109 C-13.45871002 8.96248014 -15.32076592 9.43190573 -18.5625 10.3125 C-21.48742002 11.68717866 -21.48742002 11.68717866 -24.36328125 13.47265625 C-25.42224609 14.10107422 -26.48121094 14.72949219 -27.57226562 15.37695312 C-28.66216797 16.03630859 -29.75207031 16.69566406 -30.875 17.375 C-33.05762396 18.68000875 -35.24116583 19.98348399 -37.42578125 21.28515625 C-38.38782471 21.86531494 -39.34986816 22.44547363 -40.34106445 23.04321289 C-42.5625 24.3125 -42.5625 24.3125 -43.5625 24.3125 C-44.56560658 20.33722577 -44.80468198 17.25286416 -43.5625 13.3125 C-39.55380582 9.88708143 -35.21099266 7.62196586 -30.49853516 5.30273438 C-27.86800656 3.95728368 -25.43145052 2.33134937 -22.9375 0.75 C-15.75636239 -3.09206915 -7.4610497 -3.36995367 0 0 Z " fill="#F4F4F4" transform="translate(222.5625,287.6875)"/>
<path d="M0 0 C2.81690355 5.22702822 4.44249348 10.95553281 6.31347656 16.56982422 C6.99151384 18.59959584 7.67906099 20.62597407 8.3671875 22.65234375 C8.80788227 23.9685524 9.24800396 25.2849531 9.6875 26.6015625 C10.08324219 27.78057129 10.47898437 28.95958008 10.88671875 30.17431641 C12.20664806 34.71012611 13.07355554 39.36777768 14 44 C4.76 44 -4.48 44 -14 44 C-10.62330905 30.49323621 -10.62330905 30.49323621 -9.0625 25.859375 C-8.72476563 24.85132813 -8.38703125 23.84328125 -8.0390625 22.8046875 C-7.69617188 21.79664063 -7.35328125 20.78859375 -7 19.75 C-6.65710938 18.72648437 -6.31421875 17.70296875 -5.9609375 16.6484375 C-4.07771016 11.05625862 -2.10940183 5.51081228 0 0 Z " fill="#F1F1F1" transform="translate(623,284)"/>
<path d="M0 0 C3.0831351 1.19899698 6.06279492 2.47700477 9 4 C9.14931871 8.69549918 9.25766268 13.38959068 9.32958984 18.08691406 C9.35959836 19.68156025 9.40042047 21.27604366 9.45263672 22.87011719 C9.92976821 37.8202371 9.92976821 37.8202371 6.1328125 42.9453125 C4.54345703 44.63330078 4.54345703 44.63330078 3 46 C2.175 46.78375 1.35 47.5675 0.5 48.375 C-5.64274343 52.36778323 -10.9882258 52.42958503 -18 51 C-21.625 49.4375 -21.625 49.4375 -24 48 C-24 47.34 -24 46.68 -24 46 C-21.99633789 44.59545898 -21.99633789 44.59545898 -19.22265625 42.99609375 C-18.23458984 42.42052734 -17.24652344 41.84496094 -16.22851562 41.25195312 C-15.18373047 40.65318359 -14.13894531 40.05441406 -13.0625 39.4375 C-11.0110647 38.24982693 -8.96024914 37.06108252 -6.91015625 35.87109375 C-5.99371338 35.34443115 -5.07727051 34.81776855 -4.13305664 34.27514648 C-2.09056786 33.171936 -2.09056786 33.171936 -1 32 C-0.84028023 29.62661361 -0.7407567 27.27881728 -0.68359375 24.90234375 C-0.66281265 24.19348526 -0.64203156 23.48462677 -0.62062073 22.75428772 C-0.55505402 20.48212695 -0.4962077 18.20984736 -0.4375 15.9375 C-0.39432151 14.40037817 -0.35070745 12.8632685 -0.30664062 11.32617188 C-0.19936551 7.5509041 -0.09811863 3.7755164 0 0 Z " fill="#F6F6F6" transform="translate(208,322)"/>
<path d="M0 0 C0.70640625 0.23332031 1.4128125 0.46664063 2.140625 0.70703125 C4.76191363 1.85728203 6.1838522 2.77049169 8 5 C9.38426048 9.95069577 9.43057657 14.0580082 8 19 C4.84910558 22.52509703 1.55895256 24.7144468 -3 26 C-7.8830364 24.88910922 -11.74974217 22.5501547 -16 20 C-16 14.72 -16 9.44 -16 4 C-5.14605345 -2.01367309 -5.14605345 -2.01367309 0 0 Z " fill="#F8F8F8" transform="translate(195,313)"/>
<path d="M0 0 C2.62940959 1.80031647 3.66177547 3.17081381 4.734375 6.1875 C4.734375 9.1575 4.734375 12.1275 4.734375 15.1875 C-4.835625 15.1875 -14.405625 15.1875 -24.265625 15.1875 C-24.265625 8.62823228 -24.14548459 5.25414017 -20.265625 0.1875 C-13.26950691 -4.0365713 -6.99305271 -3.90309919 0 0 Z " fill="#FAFAFA" transform="translate(483.265625,305.8125)"/>
<path d="M0 0 C1.33895632 1.66215268 2.67130142 3.32963607 4 5 C4.598125 5.70125 5.19625 6.4025 5.8125 7.125 C6.204375 7.74375 6.59625 8.3625 7 9 C6.67 9.99 6.34 10.98 6 12 C3.4375 13.1875 3.4375 13.1875 1 14 C0.01 13.01 -0.98 12.02 -2 11 C-1.67 10.113125 -1.34 9.22625 -1 8.3125 C-0.08777857 5.29076653 0.18330958 3.11626294 0 0 Z " fill="#121212" transform="translate(150,352)"/>
<path d="M0 0 C0.66 0.33 1.32 0.66 2 1 C2 4 2 4 1 7 C-0.84765625 8.16796875 -0.84765625 8.16796875 -3.0625 9.1875 C-3.79597656 9.53167969 -4.52945313 9.87585938 -5.28515625 10.23046875 C-5.85105469 10.48441406 -6.41695312 10.73835938 -7 11 C-7.66 9.68 -8.32 8.36 -9 7 C-6.3765992 4.08511023 -3.28183606 2.11496102 0 0 Z " fill="#151515" transform="translate(201,332)"/>
<path d="M0 0 C1.32 1.32 2.64 2.64 4 4 C3.01 4.33 2.02 4.66 1 5 C1 13.58 1 22.16 1 31 C0.67 31 0.34 31 0 31 C0 20.77 0 10.54 0 0 Z " fill="#D1D1D1" transform="translate(386,350)"/>
<path d="M0 0 C0.66 0.33 1.32 0.66 2 1 C0.38405168 3.04119788 -1.2856382 5.04072937 -3 7 C-3.66 7 -4.32 7 -5 7 C-3.75023244 3.34683329 -3.32901247 2.21934164 0 0 Z " fill="#E2E2E2" transform="translate(466,304)"/>
<path d="M0 0 C-0.33 0.99 -0.66 1.98 -1 3 C-1.66 3 -2.32 3 -3 3 C-3 3.66 -3 4.32 -3 5 C-3.66 5 -4.32 5 -5 5 C-5 5.66 -5 6.32 -5 7 C-5.99 6.67 -6.98 6.34 -8 6 C-7.0479279 4.99403703 -6.08812654 3.99538437 -5.125 3 C-4.59132812 2.443125 -4.05765625 1.88625 -3.5078125 1.3125 C-2 0 -2 0 0 0 Z " fill="#181818" transform="translate(149,293)"/>
<path d="M0 0 C1.32 1.32 2.64 2.64 4 4 C3.01 4.33 2.02 4.66 1 5 C1 6.65 1 8.3 1 10 C0.67 10 0.34 10 0 10 C0 6.7 0 3.4 0 0 Z " fill="#CBCBCB" transform="translate(386,350)"/>
</svg>
