<?xml version="1.0" encoding="UTF-8"?>
<svg version="1.1" xmlns="http://www.w3.org/2000/svg" width="900" height="500">
<path d="M0 0 C297 0 594 0 900 0 C900 165 900 330 900 500 C603 500 306 500 0 500 C0 335 0 170 0 0 Z " fill="#FEFEFE" transform="translate(0,0)"/>
<path d="M0 0 C10.78405602 8.75974516 16.51102443 21.18743156 19.7890625 34.421875 C19.97597656 35.17380127 20.16289063 35.92572754 20.35546875 36.70043945 C22.09022988 44.7675401 22.09371674 52.76267897 22.04980469 60.97338867 C22.03909723 63.35165999 22.04974668 65.72917359 22.0625 68.10742188 C22.08331521 89.84855101 17.65805709 111.11859009 2.1015625 127.33203125 C-1.39608825 130.49291495 -4.85822971 132.63428549 -9.2109375 134.421875 C-9.97277344 134.73898437 -10.73460937 135.05609375 -11.51953125 135.3828125 C-22.86006579 139.23965576 -38.08647363 139.45679251 -49.0859375 134.55859375 C-61.97441543 127.66420574 -68.96534333 117.15430569 -73.2109375 103.421875 C-73.2109375 102.431875 -73.2109375 101.441875 -73.2109375 100.421875 C-73.8709375 100.421875 -74.5309375 100.421875 -75.2109375 100.421875 C-75.2109375 124.511875 -75.2109375 148.601875 -75.2109375 173.421875 C-88.4109375 173.421875 -101.6109375 173.421875 -115.2109375 173.421875 C-115.2109375 114.681875 -115.2109375 55.941875 -115.2109375 -4.578125 C-103.9909375 -4.578125 -92.7709375 -4.578125 -81.2109375 -4.578125 C-77.75992399 13.82728041 -77.75992399 13.82728041 -77.0234375 22.921875 C-76.9006543 24.31599609 -76.9006543 24.31599609 -76.77539062 25.73828125 C-76.5802093 27.96564463 -76.39199076 30.1933271 -76.2109375 32.421875 C-75.5509375 32.421875 -74.8909375 32.421875 -74.2109375 32.421875 C-74.118125 31.060625 -74.118125 31.060625 -74.0234375 29.671875 C-72.20330305 17.35480078 -64.89441979 6.8623484 -55.5234375 -1.0078125 C-39.04972605 -12.19435304 -16.0798163 -11.47746605 0 0 Z " fill="#211616" transform="translate(564.2109375,193.578125)"/>
<path d="M0 0 C0.86882812 0.31195313 1.73765625 0.62390625 2.6328125 0.9453125 C14.96146349 5.91856493 25.32743948 16.06198421 31 28 C37.92155739 45.67803172 37 59.87757784 37 80 C5.98 80 -25.04 80 -57 80 C-54.03301735 93.59132419 -54.03301735 93.59132419 -45.0625 102.875 C-35.90409721 108.25344599 -24.27711241 108.60115648 -14.03515625 106.34765625 C-7.29272885 103.66221081 -2.99263855 98.62089558 -0.125 92.0625 C0.431875 90.5465625 0.431875 90.5465625 1 89 C5.21675918 88.85099928 8.62935077 89.26875742 12.66015625 90.49609375 C14.2215332 90.96305664 14.2215332 90.96305664 15.81445312 91.43945312 C16.88630859 91.76880859 17.95816406 92.09816406 19.0625 92.4375 C21.19866807 93.08385403 23.33536904 93.72845004 25.47265625 94.37109375 C26.41375244 94.65911865 27.35484863 94.94714355 28.32446289 95.24389648 C30.87032824 95.96335492 33.39956555 96.51939846 36 97 C32.29157427 111.70358272 25.56285536 124.06485529 12.875 132.8125 C-3.90495325 142.80957074 -26.3788613 144.93690126 -45.39453125 141.31640625 C-48.73135144 140.41385444 -51.82005331 139.35084807 -55 138 C-56.55847656 137.34644531 -56.55847656 137.34644531 -58.1484375 136.6796875 C-76.02994648 128.43707757 -86.8094896 114.63468961 -93.921875 96.6640625 C-100.15045627 75.49591313 -99.52441448 49.32749841 -89.32617188 29.59570312 C-86.01765419 23.61652611 -81.94059922 18.72121204 -77 14 C-76.08154297 13.05253906 -76.08154297 13.05253906 -75.14453125 12.0859375 C-56.27726379 -6.17789923 -23.68499651 -8.56440023 0 0 Z " fill="#221717" transform="translate(747,189)"/>
<path d="M0 0 C19.06730635 -0.70064749 38.32683932 0.7750601 53.04638672 14.27001953 C66.44682047 28.9656625 66.48120865 47.00132259 66.33935547 65.69189453 C66.33375108 67.87192491 66.32948497 70.0519591 66.32649231 72.23199463 C66.31510989 77.93329542 66.2857003 83.63436214 66.25238037 89.33557129 C66.22153627 95.16785517 66.20795648 101.00017736 66.19287109 106.83251953 C66.16082361 118.24930489 66.10811039 129.66585601 66.04638672 141.08251953 C54.82638672 141.08251953 43.60638672 141.08251953 32.04638672 141.08251953 C30.60888672 130.27001953 30.60888672 130.27001953 30.16186523 126.87231445 C30.04254639 125.98648682 29.92322754 125.10065918 29.80029297 124.18798828 C29.67984619 123.28201904 29.55939941 122.3760498 29.43530273 121.44262695 C29.086758 118.94068513 29.086758 118.94068513 28.04638672 116.08251953 C27.91856886 113.40856989 28.00246801 110.76156096 28.04638672 108.08251953 C25.84290178 108.9045722 25.84290178 108.9045722 25.22216797 111.19970703 C24.79484375 112.56482422 24.79484375 112.56482422 24.35888672 113.95751953 C20.558783 124.75486221 14.50221393 134.10607835 4.23388672 139.58251953 C-7.92351379 145.27321764 -22.62833504 146.42011228 -35.53564453 142.11767578 C-45.58276959 137.81640253 -53.13080831 132.06963386 -57.32861328 121.77001953 C-57.89023209 120.21457961 -58.43484474 118.65277054 -58.95361328 117.08251953 C-59.28361328 116.09251953 -59.61361328 115.10251953 -59.95361328 114.08251953 C-61.27354506 98.46909203 -59.9232473 86.18756212 -50.14892578 73.52783203 C-43.12315482 65.70197327 -33.16985694 61.84646979 -22.95361328 60.08251953 C-21.23602671 59.99988286 -19.5157104 59.9646408 -17.79614258 59.96899414 C-16.79548264 59.96906967 -15.79482269 59.9691452 -14.76383972 59.96922302 C-13.69595718 59.97438431 -12.62807465 59.97954559 -11.52783203 59.98486328 C-10.42510452 59.98627823 -9.32237701 59.98769318 -8.18623352 59.989151 C-4.67116562 59.99473949 -1.15616187 60.00728994 2.35888672 60.02001953 C4.74495351 60.02503602 7.13102129 60.02959866 9.51708984 60.03369141 C15.36021062 60.04470516 21.20329408 60.06143189 27.04638672 60.08251953 C26.81640798 57.7040552 26.56317181 55.33190687 26.29638672 52.95751953 C26.20357422 51.95978516 26.20357422 51.95978516 26.10888672 50.94189453 C25.52928427 46.01527369 23.93990838 43.04640897 21.04638672 39.08251953 C21.04638672 38.42251953 21.04638672 37.76251953 21.04638672 37.08251953 C20.09763672 36.77314453 19.14888672 36.46376953 18.17138672 36.14501953 C15.04638672 35.08251953 15.04638672 35.08251953 13.04638672 34.08251953 C3.97304464 33.2886021 -4.49898245 33.17845191 -11.95361328 39.08251953 C-13.83570571 41.26067144 -14.92204193 43.4080753 -15.95361328 46.08251953 C-16.24880859 46.81728516 -16.54400391 47.55205078 -16.84814453 48.30908203 C-17.58734129 50.21951749 -18.27539439 52.14959568 -18.95361328 54.08251953 C-26.37238614 54.29433829 -33.48530268 53.66756602 -40.82861328 52.64501953 C-41.84697266 52.5103125 -42.86533203 52.37560547 -43.91455078 52.23681641 C-51.9999377 51.14635304 -51.9999377 51.14635304 -55.95361328 50.08251953 C-55.60958086 36.22739554 -49.82346103 23.58302424 -39.78955078 14.02001953 C-28.05674533 4.40160658 -14.90857118 0.6297297 0 0 Z " fill="#211616" transform="translate(366.95361328125,185.91748046875)"/>
<path d="M0 0 C40.59 0 81.18 0 123 0 C123 11.55 123 23.1 123 35 C119.7 37.97 116.4 40.94 113 44 C110.87015765 45.95357953 108.74376968 47.90958756 106.625 49.875 C105.51448077 50.90251438 104.4038 51.9298542 103.29296875 52.95703125 C102.74431152 53.46443848 102.1956543 53.9718457 101.63037109 54.49462891 C97.59293686 58.22251443 93.53690415 61.93019029 89.48388672 65.64111328 C86.98835593 67.92642496 84.49425473 70.2132958 82 72.5 C81.00000675 73.41667404 80.00000676 74.3333407 79 75.25 C78.505 75.70375 78.01 76.1575 77.5 76.625 C73 80.75 73 80.75 71.49829102 82.12646484 C70.50385234 83.03810114 69.50954773 83.9498837 68.51538086 84.86181641 C65.93140374 87.23169862 63.34476054 89.5985741 60.75390625 91.9609375 C60.21958984 92.44884766 59.68527344 92.93675781 59.13476562 93.43945312 C57.65435037 94.79113662 56.17291197 96.14169929 54.69140625 97.4921875 C52.07019357 99.93459467 49.53338792 102.46661208 47 105 C72.41 105 97.82 105 124 105 C124 115.89 124 126.78 124 138 C82.42 138 40.84 138 -2 138 C-2 104 -2 104 5.75 94.5625 C10.4765625 91.04296875 10.4765625 91.04296875 12.82910156 89.48193359 C15.90664688 87.38109013 18.43697431 84.95624111 21.125 82.375 C22.06601563 81.51648438 23.00703125 80.65796875 23.9765625 79.7734375 C27.5095198 76.54256339 31.00384937 73.27059253 34.5 70 C39.97593518 64.87878127 45.4801346 59.79112028 51.015625 54.734375 C53.15926803 52.77439081 55.29297251 50.80410969 57.421875 48.828125 C58.28594971 48.02689209 58.28594971 48.02689209 59.16748047 47.20947266 C60.26660952 46.18954879 61.36467774 45.16847988 62.46142578 44.14599609 C62.96657715 43.67758301 63.47172852 43.20916992 63.9921875 42.7265625 C64.64743408 42.11675537 64.64743408 42.11675537 65.31591797 41.49462891 C67.8242241 39.26849812 70.42362154 37.14698205 73 35 C48.91 34.67 24.82 34.34 0 34 C0 22.78 0 11.56 0 0 Z " fill="#211616" transform="translate(174,189)"/>
<path d="M0 0 C11.22 0 22.44 0 34 0 C34.639375 3.75375 35.27875 7.5075 35.9375 11.375 C36.13722412 12.53692871 36.33694824 13.69885742 36.54272461 14.89599609 C37.50530597 20.61135322 38.29874585 26.28196491 38.75610352 32.06103516 C38.90085076 34.07844269 38.90085076 34.07844269 40 36 C40.43699219 34.53240234 40.43699219 34.53240234 40.8828125 33.03515625 C44.83407629 20.20665429 50.21655128 9.35975972 62.53125 2.61328125 C70.53463174 -0.74107727 75.65240349 0 85 0 C85 13.2 85 26.4 85 40 C73.1875 40.25 73.1875 40.25 69.53588867 40.29785156 C61.83809929 40.53646482 53.61427014 41.41432897 47.32104492 46.3046875 C41.95604916 52.17435576 40.55233983 59.58972548 40.56762695 67.25195312 C40.5574353 68.03340698 40.54724365 68.81486084 40.53674316 69.61999512 C40.50682237 72.17382165 40.49737965 74.72727186 40.48828125 77.28125 C40.47141899 79.06344834 40.45326668 80.84563491 40.43388367 82.62780762 C40.38654538 87.29659341 40.35663169 91.96533141 40.33044434 96.63427734 C40.29529322 102.24793367 40.23832678 107.86140659 40.18505096 113.47491455 C40.10672679 121.98325254 40.05597794 130.49135355 40 139 C26.8 139 13.6 139 0 139 C0 93.13 0 47.26 0 0 Z " fill="#211717" transform="translate(796,189)"/>
<path d="M0 0 C13.2 0 26.4 0 40 0 C40 45.87 40 91.74 40 139 C26.8 139 13.6 139 0 139 C0 93.13 0 47.26 0 0 Z " fill="#211616" transform="translate(598,189)"/>
<path d="M0 0 C45.54 0 91.08 0 138 0 C138 10.89 138 21.78 138 33 C92.46 33 46.92 33 0 33 C0 22.11 0 11.22 0 0 Z " fill="#FF4F00" transform="translate(18,294)"/>
<path d="M0 0 C0.92546631 0.01071533 1.85093262 0.02143066 2.80444336 0.0324707 C9.73924474 0.28512591 14.6349394 1.45881374 19.5 6.6875 C20.263125 7.43 21.02625 8.1725 21.8125 8.9375 C29.60419581 21.63507836 30.52884041 37.17537353 27.74609375 51.59375 C24.83175134 60.64535466 20.02999695 67.95952181 11.65087891 72.74316406 C4.86606448 75.72201335 -5.86844087 74.87047495 -12.76171875 72.625 C-20.69910374 68.1518642 -25.32177343 61.55347513 -27.95703125 52.9609375 C-31.25660964 39.14543661 -31.32672322 23.92411404 -24.21484375 11.4296875 C-18.37950212 2.61978454 -10.23303585 -0.21953739 0 0 Z " fill="#FDFDFD" transform="translate(518.5,221.3125)"/>
<path d="M0 0 C1.01586182 -0.02247803 1.01586182 -0.02247803 2.05224609 -0.04541016 C7.98503588 0.07828058 11.4798579 2.28966924 15.640625 6.34375 C16.10984375 6.9109375 16.5790625 7.478125 17.0625 8.0625 C17.54203125 8.6296875 18.0215625 9.196875 18.515625 9.78125 C22.63365917 15.43734513 22.34746297 20.74829954 21.8125 27.5625 C20.6151645 34.5924005 16.49257598 38.52866485 10.8125 42.5625 C5.33852356 46.13248464 -1.93046386 45.09287109 -8.1875 44.5625 C-14.53688408 42.78339406 -18.92305655 37.15759578 -22.32421875 31.7578125 C-24.63701858 25.87639393 -24.20047768 18.48588425 -22.16015625 12.59765625 C-19.4481822 7.60191459 -16.18856198 3.81428606 -11.01953125 1.33984375 C-7.35032292 0.33270933 -3.78295386 0.06651917 0 0 Z " fill="#211717" transform="translate(619.1875,133.4375)"/>
<path d="M0 0 C1.32115059 0.00636726 1.32115059 0.00636726 2.66899109 0.01286316 C5.47104985 0.02960231 8.27237884 0.06724545 11.07421875 0.10546875 C12.97850521 0.12052176 14.88280299 0.13420909 16.78710938 0.14648438 C21.44559197 0.17949021 26.1035318 0.23123946 30.76171875 0.29296875 C30.83657372 7.63433524 30.31350089 12.39831655 25.18359375 18.0234375 C16.96744428 25.51789816 7.96049188 26.60956285 -2.84765625 26.5078125 C-8.35929104 26.15857297 -11.4183295 24.83292792 -15.67578125 21.23046875 C-17.9661095 16.92465165 -17.8836796 13.07049071 -17.23828125 8.29296875 C-13.98534935 0.24624247 -7.69613007 -0.14033623 0 0 Z " fill="#FBFBFB" transform="translate(363.23828125,271.70703125)"/>
<path d="M0 0 C4.50845154 3.89191116 7.13154232 8.39462696 9 14 C9 15.65 9 17.3 9 19 C-9.81 19 -28.62 19 -48 19 C-45.08938585 9.29795284 -42.91335629 3.72301377 -34.3125 -1.4375 C-24.47407984 -6.07826423 -9.25421323 -6.0977374 0 0 Z " fill="#FDFDFD" transform="translate(738,223)"/>
</svg>
